<svg width="58" height="58" viewBox="0 0 58 58" fill="none" xmlns="http://www.w3.org/2000/svg">
<path d="M41.9047 13.1957C41.3311 13.1957 40.7704 13.3657 40.2935 13.6844C39.8166 14.003 39.4449 14.456 39.2254 14.9859C39.0059 15.5158 38.9485 16.0989 39.0604 16.6614C39.1723 17.224 39.4485 17.7407 39.8541 18.1463C40.2596 18.5518 40.7764 18.828 41.3389 18.9399C41.9015 19.0518 42.4846 18.9944 43.0145 18.7749C43.5444 18.5554 43.9973 18.1837 44.3159 17.7068C44.6346 17.2299 44.8047 16.6692 44.8047 16.0956C44.8047 15.3265 44.4991 14.5889 43.9553 14.045C43.4114 13.5012 42.6738 13.1957 41.9047 13.1957ZM53.0213 19.044C52.9739 17.0389 52.5984 15.0552 51.9097 13.1715C51.298 11.5585 50.3412 10.0986 49.1063 8.89398C47.9097 7.65526 46.4469 6.70491 44.8288 6.11482C42.9503 5.40471 40.9642 5.02058 38.9563 4.97898C36.3947 4.83398 35.573 4.83398 28.9997 4.83398C22.4263 4.83398 21.6047 4.83398 19.043 4.97898C17.0351 5.02058 15.0491 5.40471 13.1705 6.11482C11.5561 6.71235 10.095 7.66168 8.89301 8.89398C7.65429 10.0907 6.70393 11.5534 6.11384 13.1715C5.40373 15.0501 5.0196 17.0361 4.97801 19.044C4.83301 21.6056 4.83301 22.4273 4.83301 29.0006C4.83301 35.574 4.83301 36.3957 4.97801 38.9573C5.0196 40.9652 5.40373 42.9512 6.11384 44.8298C6.70393 46.4479 7.65429 47.9106 8.89301 49.1073C10.095 50.3396 11.5561 51.289 13.1705 51.8865C15.0491 52.5966 17.0351 52.9807 19.043 53.0223C21.6047 53.1673 22.4263 53.1673 28.9997 53.1673C35.573 53.1673 36.3947 53.1673 38.9563 53.0223C40.9642 52.9807 42.9503 52.5966 44.8288 51.8865C46.4469 51.2964 47.9097 50.346 49.1063 49.1073C50.3443 47.9052 51.3015 46.4446 51.9097 44.8298C52.5984 42.9461 52.9739 40.9624 53.0213 38.9573C53.0213 36.3957 53.1663 35.574 53.1663 29.0006C53.1663 22.4273 53.1663 21.6056 53.0213 19.044ZM48.6713 38.6673C48.6542 40.2014 48.3764 41.7214 47.8497 43.1623C47.4638 44.214 46.844 45.1643 46.0372 45.9415C45.2528 46.7396 44.3046 47.358 43.258 47.754C41.8171 48.2807 40.2971 48.5585 38.763 48.5756C36.3463 48.6965 35.4522 48.7206 29.0963 48.7206C22.7405 48.7206 21.8463 48.7206 19.4297 48.5756C17.8367 48.6069 16.2504 48.3616 14.7413 47.8506C13.7413 47.4334 12.8368 46.8166 12.083 46.0381C11.2809 45.2618 10.6689 44.3107 10.2947 43.259C9.7027 41.7979 9.37538 40.2431 9.32801 38.6673C9.32801 36.2506 9.18301 35.3565 9.18301 29.0006C9.18301 22.6448 9.18301 21.7507 9.32801 19.334C9.33682 17.7655 9.62318 16.211 10.1738 14.7423C10.5993 13.7223 11.2523 12.813 12.083 12.084C12.8151 11.2507 13.723 10.5904 14.7413 10.1507C16.2141 9.61772 17.7669 9.33985 19.333 9.32898C21.7497 9.32898 22.6438 9.18398 28.9997 9.18398C35.3555 9.18398 36.2497 9.18398 38.6663 9.32898C40.2004 9.34611 41.7204 9.62396 43.1613 10.1507C44.2595 10.5582 45.2452 11.2209 46.0372 12.084C46.8267 12.8284 47.4452 13.7354 47.8497 14.7423C48.3873 16.2138 48.6653 17.7674 48.6713 19.334C48.7922 21.7507 48.8163 22.6448 48.8163 29.0006C48.8163 35.3565 48.7922 36.2506 48.6713 38.6673ZM28.9997 16.6032C26.5487 16.6079 24.1542 17.3391 22.1186 18.7042C20.083 20.0694 18.4978 22.0073 17.5631 24.2731C16.6285 26.5388 16.3864 29.0308 16.8675 31.4341C17.3486 33.8373 18.5312 36.0441 20.266 37.7755C22.0008 39.5069 24.2099 40.6853 26.6141 41.1617C29.0183 41.6381 31.5098 41.3912 33.7737 40.4521C36.0377 39.5131 37.9725 37.924 39.3336 35.8858C40.6948 33.8476 41.4213 31.4516 41.4213 29.0006C41.4245 27.3697 41.1052 25.7541 40.4818 24.247C39.8584 22.7398 38.9432 21.3708 37.7888 20.2186C36.6344 19.0664 35.2635 18.1539 33.7552 17.5334C32.2468 16.9129 30.6307 16.5968 28.9997 16.6032ZM28.9997 37.0481C27.408 37.0481 25.8521 36.5762 24.5287 35.6919C23.2053 34.8076 22.1738 33.5508 21.5648 32.0803C20.9557 30.6098 20.7963 28.9917 21.1068 27.4307C21.4173 25.8696 22.1838 24.4357 23.3092 23.3102C24.4347 22.1847 25.8686 21.4183 27.4297 21.1078C28.9907 20.7973 30.6088 20.9566 32.0793 21.5657C33.5498 22.1748 34.8067 23.2063 35.6909 24.5297C36.5752 25.8531 37.0472 27.409 37.0472 29.0006C37.0472 30.0575 36.839 31.1039 36.4346 32.0803C36.0302 33.0567 35.4374 33.9438 34.6901 34.6911C33.9428 35.4384 33.0557 36.0311 32.0793 36.4356C31.103 36.84 30.0565 37.0481 28.9997 37.0481Z" fill="white"/>
</svg>
